# xmcd CD database file
# Copyright (C) 1993-1998 Ti Kan
# 
# Track frame offsets:
#     150
#     19562
#     41050
#     62165
#     74627
#     89907
#     103707
#     116827
#     135342
#     151892
#     176157
# 
# Disc length: 2575 seconds
# 
# Revision: 1
# Processed by: cddbd v1.4b41PL1 Copyright (c) Steve Scherf et al.
# Submitted via: DiscPlay 4.0.4
# 
DISCID=9d0a0d0b
DTITLE=Ronnie Earl and The Broadcasters - Soul Searchin'
DYEAR=1900
DGENRE=
TTITLE0=Backstroke
TTITLE1=Ships Passing In The Night
TTITLE2=You're The One
TTITLE3=Soul Searchin'
TTITLE4=It's My Soul
TTITLE5=Evening Sun
TTITLE6=Jerry Jumps In
TTITLE7=After All
TTITLE8=I Don't Believe
TTITLE9=Blues For Bone
TTITLE10=Sufferin'
EXTD=
EXTT0=
EXTT1=
EXTT2=
EXTT3=
EXTT4=
EXTT5=
EXTT6=
EXTT7=
EXTT8=
EXTT9=
EXTT10=
PLAYORDER=
